<?xml version="1.0" encoding="UTF-8"?>
<svg version="1.1" xmlns="http://www.w3.org/2000/svg" width="1254" height="1254">
<path d="M0 0 C413.82 0 827.64 0 1254 0 C1254 413.82 1254 827.64 1254 1254 C840.18 1254 426.36 1254 0 1254 C0 840.18 0 426.36 0 0 Z " fill="#FBBBCC" transform="translate(0,0)"/>
<path d="M0 0 C15.16201216 13.3487002 15.16201216 13.3487002 20.29003906 21.4453125 C22.45020162 24.75797951 22.45020162 24.75797951 25.84082031 25.51171875 C27.58492187 25.61419922 27.58492187 25.61419922 29.36425781 25.71875 C30.70729696 25.83722888 32.04974419 25.96256238 33.39160156 26.09375 C34.09913574 26.15820312 34.80666992 26.22265625 35.53564453 26.2890625 C65.94432517 29.63112002 94.81383556 43.62781523 117.73925781 63.53125 C118.56941406 64.23894531 119.39957031 64.94664062 120.25488281 65.67578125 C143.92946669 86.33520586 163.97736322 116.1514734 166.48535156 148.19921875 C166.57437439 149.64296533 166.65893173 151.08699346 166.73925781 152.53125 C166.78840332 153.27455566 166.83754883 154.01786133 166.88818359 154.78369141 C168.50670948 182.08978942 158.75430982 208.03941558 140.97119141 228.57275391 C132.60278511 237.84219991 123.50059356 245.23457222 112.73925781 251.53125 C112.15772949 251.87704102 111.57620117 252.22283203 110.97705078 252.57910156 C102.30584649 257.66951417 93.2248794 261.44101723 83.90039062 265.16503906 C78.11499974 267.49736942 72.46206849 269.96429775 66.92675781 272.84375 C66.30478516 273.15699219 65.6828125 273.47023438 65.04199219 273.79296875 C61.85508782 275.42446631 61.85508782 275.42446631 60.08309078 278.37681484 C59.73302288 280.5703177 59.62186007 282.60570839 59.63246155 284.82643127 C59.6339772 285.67742401 59.63549286 286.52841675 59.63705444 287.40519714 C59.64716049 288.79319267 59.64716049 288.79319267 59.6574707 290.20922852 C59.66053726 291.19010437 59.66360382 292.17098022 59.66676331 293.18157959 C59.67391407 295.31014891 59.68330185 297.43871162 59.69465828 299.56726265 C59.71203253 302.9331061 59.72234219 306.2989022 59.73057556 309.66477966 C59.75504787 319.23416627 59.79068692 328.80348887 59.83520508 338.37280273 C59.86194041 344.22586076 59.87901352 350.07888205 59.89007378 355.93198967 C59.89629437 358.16518451 59.90631303 360.39837205 59.92015266 362.63153267 C59.93930211 365.748625 59.94625543 368.86552293 59.95043945 371.98266602 C59.96358185 373.37369789 59.96358185 373.37369789 59.97698975 374.79283142 C59.97568558 375.64100433 59.97438141 376.48917725 59.97303772 377.36305237 C59.97618012 378.09990045 59.97932253 378.83674852 59.98256016 379.59592533 C59.73925781 381.53125 59.73925781 381.53125 57.73925781 384.53125 C53.07409645 384.10768676 49.751042 383.24295933 45.55883789 381.00537109 C23.1823667 369.07687183 -2.97059176 365.82694996 -27.75448608 362.35514832 C-30.98023273 361.8984857 -34.10850157 361.34697656 -37.26074219 360.53125 C-40.31311631 360.10631526 -43.38127489 359.83115207 -46.44824219 359.53125 C-47.24166016 359.44875 -48.03507812 359.36625 -48.85253906 359.28125 C-63.87304412 357.78736916 -78.86250353 357.32461758 -93.94824219 357.34375 C-94.8381485 357.34435425 -95.72805481 357.3449585 -96.64492798 357.34558105 C-142.7978652 357.42994161 -200.52579628 359.36201384 -241.37011719 383.79296875 C-243.92860377 384.79204719 -245.63161757 384.13409458 -248.26074219 383.53125 C-248.39265344 372.9417137 -248.52313532 362.35216077 -248.65189362 351.76258564 C-248.71175225 346.84309859 -248.77206598 341.92361808 -248.83349609 337.00415039 C-248.89298827 332.23843392 -248.95118544 327.47270309 -249.00856018 322.70696068 C-249.03043921 320.9073145 -249.05275077 319.10767351 -249.07554626 317.30803871 C-249.12887565 313.08726955 -249.17633076 308.86663319 -249.21020508 304.6456604 C-249.23961719 301.02933951 -249.30306428 297.41502292 -249.37963867 293.79940796 C-249.40750682 291.90949134 -249.43494374 290.01956831 -249.46191406 288.12963867 C-249.48622749 287.25714887 -249.51054092 286.38465906 -249.53559113 285.48573017 C-249.58853721 280.37192347 -249.0346762 277.0072492 -246.26074219 272.53125 C-246.9478125 272.28117187 -247.63488281 272.03109375 -248.34277344 271.7734375 C-251.71901467 270.33616211 -254.80234803 268.52748116 -257.94824219 266.65625 C-261.86863302 264.36779219 -265.67284684 262.22188773 -269.94824219 260.65625 C-303.4052204 248.14433228 -332.33153331 223.81557007 -347.48803711 191.31030273 C-359.6079876 163.73546557 -360.89091731 133.56367785 -350.51074219 105.21875 C-337.10761026 70.89815426 -309.71758832 44.96937778 -276.29199219 30.23828125 C-257.32970986 22.13906113 -237.36494676 17.27163543 -216.69824219 17.46875 C-215.32829102 17.47551758 -215.32829102 17.47551758 -213.93066406 17.48242188 C-211.70728481 17.4940626 -209.48405097 17.51041149 -207.26074219 17.53125 C-206.96594971 16.91717285 -206.67115723 16.3030957 -206.36743164 15.67041016 C-195.67102121 -5.00506927 -166.9131771 -16.82942898 -146.13061523 -23.50805664 C-142.53475253 -24.6075632 -138.91016101 -25.56462954 -135.26074219 -26.46875 C-134.59816406 -26.63536133 -133.93558594 -26.80197266 -133.25292969 -26.97363281 C-90.47512225 -37.10190781 -34.19129973 -28.49620135 0 0 Z " fill="#F9F5F5" transform="translate(721.2607421875,248.46875)"/>
<path d="M0 0 C16.74089382 -0.54228601 32.77675135 3.72572761 45.48828125 15.06640625 C46.91757269 16.42827828 48.33920057 17.7985162 49.73828125 19.19140625 C51.13046875 17.92296875 51.13046875 17.92296875 52.55078125 16.62890625 C67.92744868 3.56336118 83.97477104 -0.65385636 103.73828125 0.19140625 C126.93408044 2.1870956 146.17195873 18.07978509 163.11328125 32.62890625 C184.12726978 50.59554901 205.79507181 65.13549417 234.4375 63.39208984 C245.20515118 62.45289107 254.95381506 57.9748509 262.296875 49.984375 C267.1470764 43.95119765 267.32548304 38.15722457 267.15625 30.58203125 C266.57777127 25.88932526 265.12422583 22.51046797 261.73828125 19.19140625 C257.86922595 16.32790577 255.02086673 15.75949338 250.23828125 15.75390625 C249.13484375 15.73457031 248.03140625 15.71523438 246.89453125 15.6953125 C243.07637422 16.29544362 241.48178519 17.520354 238.73828125 20.19140625 C236.61319881 23.3790299 236.23626495 25.45652848 235.73828125 29.19140625 C235.07828125 28.86140625 234.41828125 28.53140625 233.73828125 28.19140625 C234.00847538 22.11203842 234.70104279 18.01366329 238.73828125 13.19140625 C244.85191226 7.68913834 249.20697108 6.73801719 257.34375 6.875 C264.97055399 7.58589888 271.43166657 10.64358181 276.73828125 16.19140625 C284.44170154 27.41321562 287.50591963 38.52211871 285.43798828 52.17382812 C281.85545619 71.1772213 271.01555875 87.24467737 255.08984375 98.33984375 C241.71534826 107.19673187 227.41104375 113.50232955 211.70654297 116.76953125 C209.84398576 117.16874967 207.99535507 117.63140502 206.1484375 118.09765625 C195.75469081 120.41452858 185.46428264 120.45517414 174.86328125 120.44140625 C174.09155579 120.44072144 173.31983032 120.44003662 172.52471924 120.43933105 C159.36661219 120.4008499 159.36661219 120.4008499 155.73828125 119.19140625 C153.34678156 118.82828411 150.9499998 118.4994303 148.55078125 118.19140625 C147.54519165 118.06113037 147.54519165 118.06113037 146.51928711 117.92822266 C144.59269352 117.67943419 142.66549967 117.43530734 140.73828125 117.19140625 C139.36929688 117.01738281 139.36929688 117.01738281 137.97265625 116.83984375 C136.22829766 116.62023026 134.483376 116.40509132 132.73828125 116.19140625 C132.73828125 115.53140625 132.73828125 114.87140625 132.73828125 114.19140625 C131.4234375 114.07539062 130.10859375 113.959375 128.75390625 113.83984375 C100.31748564 110.63214447 72.36978912 90.96519338 54.4453125 69.4375 C52.83376718 67.38205597 51.26028321 65.31363434 49.73828125 63.19140625 C49.01125 64.24328125 49.01125 64.24328125 48.26953125 65.31640625 C27.98995947 94.01980016 -7.36559665 111.4953688 -41.26171875 118.19140625 C-49.55828995 119.45285846 -57.88104891 119.92951032 -66.26171875 120.19140625 C-67.1846875 120.22314941 -68.10765625 120.25489258 -69.05859375 120.28759766 C-87.4175285 120.82815155 -105.69449499 119.85825262 -123.26171875 114.19140625 C-124.18597656 113.90523437 -125.11023438 113.6190625 -126.0625 113.32421875 C-138.84353871 109.04493764 -150.75734351 102.60905375 -161.26171875 94.19140625 C-161.90367187 93.7015625 -162.545625 93.21171875 -163.20703125 92.70703125 C-175.72349686 82.71630982 -185.17308939 66.10960089 -187.26171875 50.19140625 C-188.38244115 36.67180568 -185.73112296 26.79339425 -177.26171875 16.19140625 C-172.08350264 10.61111689 -166.73312562 7.64527086 -159.14453125 6.875 C-152.36981053 6.6324869 -146.72465673 6.90796624 -141.26171875 11.19140625 C-134.37301619 17.97436118 -134.37301619 17.97436118 -134.1640625 22.13671875 C-134.19661458 24.15494792 -134.22916667 26.17317708 -134.26171875 28.19140625 C-135.25171875 28.68640625 -135.25171875 28.68640625 -136.26171875 29.19140625 C-136.32359375 28.13953125 -136.38546875 27.08765625 -136.44921875 26.00390625 C-137.41195014 21.48647435 -138.72660081 20.06882783 -142.26171875 17.19140625 C-146.56479555 14.68201444 -150.38095218 14.42202433 -155.26171875 15.19140625 C-160.14626402 17.11432038 -164.27945948 20.16071543 -166.63671875 24.98046875 C-168.7628139 32.50153036 -168.06807399 40.4374947 -164.44921875 47.3359375 C-159.42507505 55.18616203 -150.19047212 60.8111832 -141.26171875 63.19140625 C-137.89598108 63.61875746 -134.58903929 63.66880116 -131.19921875 63.62890625 C-129.81331543 63.61537109 -129.81331543 63.61537109 -128.39941406 63.6015625 C-101.69589217 62.93420617 -81.03978058 47.21139456 -61.48974609 30.69433594 C-43.61546303 15.63024409 -24.07964212 1.41305684 0 0 Z " fill="#FBF7F7" transform="translate(576.26171875,646.80859375)"/>
<path d="M0 0 C0.66 0 1.32 0 2 0 C1.45522569 4.24057275 0.46423461 7.40634837 -1.5 11.1875 C-8.14881051 25.14199146 -12.4528219 40.34932938 -16.6875 55.1875 C-20.42324707 68.22057767 -25.20091073 80.25246114 -32 92 C-31.29617188 91.23816406 -30.59234375 90.47632813 -29.8671875 89.69140625 C-22.62988847 82.05451698 -15.11579579 76.23923315 -6 71 C-4.97712891 70.39671875 -4.97712891 70.39671875 -3.93359375 69.78125 C-1.41145982 68.76220599 0.72224285 68.6626596 3.4375 68.625 C4.36433594 68.59664062 5.29117188 68.56828125 6.24609375 68.5390625 C9.88443883 69.14803373 11.4813988 70.32510263 14 73 C16.08909975 80.34896512 14.02116353 87.17688003 10.5625 93.6875 C6.87393737 100.25126708 2.24990787 105.61757018 -3 111 C-3.78375 112.010625 -4.5675 113.02125 -5.375 114.0625 C-21.18596157 131.7557189 -47.10929485 145.33724513 -70.73828125 147.3125 C-77.65698556 147.54628937 -82.55872501 147.47393722 -88 143 C-91 138.93548387 -91 138.93548387 -91 136 C-91.81339844 136.56589844 -92.62679688 137.13179687 -93.46484375 137.71484375 C-101.09729736 142.70677109 -106.94653972 144.67526847 -116.07055664 144.77368164 C-122.6339615 144.8698127 -126.65595859 146.14908912 -131.6953125 150.4453125 C-133.32141546 152.04473794 -133.32141546 152.04473794 -133 155 C-132.00419922 155.34611328 -132.00419922 155.34611328 -130.98828125 155.69921875 C-125.48501072 157.73181356 -121.77956836 159.48890229 -118 164 C-117.67 164.33 -117.34 164.66 -117 165 C-116.33909044 173.75393417 -121.4050302 180.36540909 -126.84716797 186.80078125 C-134.89174446 195.82817931 -142.049916 199.06463991 -153.96875 200.27514648 C-173.02467724 202.26911062 -191.4805255 213.7398499 -204 228 C-204.33 228.66 -204.66 229.32 -205 230 C-194.0178014 230.3941893 -183.21810332 229.17774755 -172.3125 228.0625 C-151.93329673 225.99793427 -131.88649561 224.81324529 -111.3918457 224.81469727 C-107.96748251 224.81251907 -104.54344689 224.79431488 -101.11914062 224.77539062 C-89.89791522 224.74626814 -78.75558117 224.99578477 -67.56640625 225.88671875 C-66.55924057 225.96445023 -65.55207489 226.0421817 -64.51438904 226.12226868 C-63.58352982 226.20526718 -62.65267059 226.28826569 -61.69360352 226.3737793 C-60.88053238 226.44590134 -60.06746124 226.51802338 -59.22975159 226.59233093 C-56.85413057 227.02666954 -55.09565599 227.82012434 -53 229 C-54.1152002 229.01981934 -55.23040039 229.03963867 -56.37939453 229.06005859 C-92.41891915 229.72090983 -127.95946629 232.01157304 -163.78311157 236.03994751 C-169.83338062 236.70428914 -175.87587788 237.23635371 -181.94895935 237.64103699 C-185.70760146 237.89882298 -189.45995138 238.21639608 -193.21322632 238.54232788 C-194.96271719 238.67882351 -196.71463173 238.78760489 -198.46768188 238.86611938 C-207.81995972 239.14514545 -207.81995972 239.14514545 -215.66082764 243.63946533 C-219.26177332 248.34734087 -221.65934886 253.58614564 -224 259 C-224.75917725 260.57491211 -224.75917725 260.57491211 -225.53369141 262.18164062 C-226.73464729 264.71919628 -227.82383112 267.27238704 -228.875 269.875 C-229.24520264 270.76646729 -229.61540527 271.65793457 -229.99682617 272.57641602 C-231.01458501 275.04463355 -232.01283423 277.51941577 -233 280 C-233.64775391 281.62615234 -233.64775391 281.62615234 -234.30859375 283.28515625 C-236.9945039 290.38139357 -238.99338582 297.68866641 -241 305 C-241.66 305 -242.32 305 -243 305 C-243.17180592 299.74273896 -242.60375778 294.95033835 -241.4375 289.8125 C-241.26259033 289.0393042 -241.08768066 288.2661084 -240.9074707 287.46948242 C-237.38623475 272.65002035 -231.78233911 258.60590825 -225 245 C-235.73172934 245.5992495 -246.25356855 247.66227351 -256.8125 249.5625 C-257.80120087 249.73951447 -258.78990173 249.91652893 -259.80856323 250.09890747 C-304.81278569 258.17781602 -349.33131392 268.36822822 -393 282 C-393.64552826 282.20146637 -394.29105652 282.40293274 -394.95614624 282.61050415 C-429.45487152 293.3987972 -462.835429 305.93015535 -495.5 321.5 C-505.60295253 326.27628478 -513.57261515 329.26242272 -525 328 C-527 326 -527 326 -527.3515625 323.671875 C-526.62517299 318.15131474 -521.94184668 314.60258939 -518 311 C-504.39565115 300.58744069 -488.19133073 293.74473189 -472.02734375 288.38671875 C-469.03368789 287.38646881 -466.11508651 286.25955244 -463.19140625 285.0703125 C-446.25260676 278.21770286 -428.62195019 273.34619633 -410.95947266 268.76855469 C-408.29698654 268.07712536 -405.63800313 267.3742425 -402.98046875 266.6640625 C-399.11514638 265.63179501 -395.24477904 264.62044931 -391.37158203 263.61816406 C-389.79046685 263.20603892 -388.21069731 262.78871625 -386.63232422 262.36621094 C-356.89981584 254.4098747 -326.38079839 247.87884634 -295.87890625 243.71875 C-291.88402689 243.16945409 -288.00090308 242.36750526 -284.07495117 241.45507812 C-281.02892449 240.7870238 -277.96788951 240.38747609 -274.875 240 C-273.5859375 239.835 -272.296875 239.67 -270.96875 239.5 C-270.31261719 239.4175 -269.65648437 239.335 -268.98046875 239.25 C-260.21405508 238.14339157 -251.45284573 237.00024492 -242.73828125 235.53515625 C-239.72245793 235.10342397 -236.76370811 234.80316648 -233.73046875 234.55859375 C-224.18312916 234.07954089 -224.18312916 234.07954089 -215.8125 230.21484375 C-214.49450618 227.9159408 -214.49450618 227.9159408 -213.46875 225.26171875 C-205.15890778 206.80768083 -185.06125286 187.96153375 -166.4765625 179.90625 C-159.15099332 176.71898481 -156.30389012 170.66085951 -152.421875 164.02734375 C-149.43343462 158.94248156 -145.82161165 154.47832752 -142 150 C-141.22785156 149.02546875 -140.45570313 148.0509375 -139.66015625 147.046875 C-132.9608973 139.01792427 -122.46332106 130.83346733 -111.921875 129.65625 C-109.85021218 129.51613754 -107.77510176 129.41722448 -105.69921875 129.37109375 C-102.6149709 128.94706546 -101.35393184 127.9590117 -99 126 C-98.34 126 -97.68 126 -97 126 C-96.9175 124.741875 -96.835 123.48375 -96.75 122.1875 C-96.70359375 121.47980469 -96.6571875 120.77210938 -96.609375 120.04296875 C-96.83252411 117.85306197 -96.83252411 117.85306197 -98.6875 116.28125 C-101.33733817 114.81309642 -103.24023778 114.51051067 -106.25 114.3125 C-107.14203125 114.24675781 -108.0340625 114.18101562 -108.953125 114.11328125 C-109.62859375 114.07589844 -110.3040625 114.03851562 -111 114 C-107.85676973 104.83224504 -101.25532442 101.23126272 -93 97 C-86.41106831 94.38714778 -79.55394606 94.12827738 -72.6875 95.8125 C-71.800625 96.204375 -70.91375 96.59625 -70 97 C-69.071875 97.391875 -68.14375 97.78375 -67.1875 98.1875 C-65 100 -65 100 -64 103.25 C-64 108.57032929 -65.18263845 112.04966077 -68.76171875 115.890625 C-70.0078713 117.09380677 -71.27777524 118.27305963 -72.57421875 119.421875 C-74.33519207 121.01653839 -74.33519207 121.01653839 -74 124 C-69.79782528 124.54249387 -65.81615525 124.90980073 -61.94140625 122.96875 C-50.03231309 113.26321046 -42.15285502 98.52550665 -37.6875 84.125 C-37.38972656 83.18245361 -37.09195312 82.23990723 -36.78515625 81.26879883 C-34.80553163 74.89896151 -33.04545409 68.48933634 -31.37011719 62.03344727 C-25.96337802 41.24238096 -18.55131476 25.52098149 -6 8 C-5.43941895 7.20867676 -4.87883789 6.41735352 -4.30126953 5.60205078 C-3.50438721 4.50159424 -3.50438721 4.50159424 -2.69140625 3.37890625 C-2.22033447 2.72607666 -1.7492627 2.07324707 -1.26391602 1.40063477 C-0.84682373 0.93842529 -0.42973145 0.47621582 0 0 Z " fill="#FDFBFB" transform="translate(918,740)"/>
<path d="M0 0 C-1.60404824 9.60201098 -11.93553721 18.7646209 -18 26 C-18.57363281 26.71027344 -19.14726563 27.42054688 -19.73828125 28.15234375 C-24.51498369 33.90946721 -30.1393153 38.38592503 -36 43 C-36.85078125 43.69351563 -37.7015625 44.38703125 -38.578125 45.1015625 C-46.95881052 51.92734096 -55.84019634 57.91110559 -64.83642578 63.88623047 C-94.29940602 81.76820674 -94.29940602 81.76820674 -119 105 C-118.14341797 104.47599609 -118.14341797 104.47599609 -117.26953125 103.94140625 C-109.75652907 99.72504732 -101.84167313 97.49139001 -93.27734375 99.703125 C-89.25949322 101.34946375 -86.05778145 103.01304845 -84 107 C-79.33463769 120.99608694 -86.02356805 134.23124799 -92.13623047 146.52294922 C-100.29040842 162.50021009 -112.11617821 183.57888025 -130 190 C-135.95389038 190.83471848 -141.63679882 191.56669047 -146.8046875 188.140625 C-151.46155021 183.59976954 -152.22380632 179.17520168 -152.5 172.875 C-151.93538085 151.39688769 -143.0479379 129.2128544 -135.02514648 109.56225586 C-133.87689442 106.69230935 -132.80459818 103.79980099 -131.73828125 100.8984375 C-124.87198835 82.33798952 -116.72946172 66.85362029 -105 51 C-104.34 50.01 -103.68 49.02 -103 48 C-102.01 48.33 -101.02 48.66 -100 49 C-101.26982399 52.25491042 -102.63872956 55.41567562 -104.171875 58.5546875 C-113.31287674 76.16016485 -113.31287674 76.16016485 -119 95 C-115.42188619 91.51976772 -111.96442457 88.00900718 -108.75 84.1875 C-96.56596819 70.13939237 -80.6531341 59.41066651 -65.75 48.48828125 C-55.44501489 40.93282317 -45.24695982 33.23575415 -35.13671875 25.421875 C-32.50706089 23.39150405 -29.8698185 21.37149437 -27.23046875 19.35375977 C-21.02956669 14.60784431 -14.91577221 9.76152788 -8.84814453 4.84619141 C-2.84053552 0 -2.84053552 0 0 0 Z " fill="#FDFBFB" transform="translate(587,776)"/>
<path d="M0 0 C0.66 0 1.32 0 2 0 C1.42684553 3.42135455 0.58033594 6.17724044 -1.01171875 9.25390625 C-1.64364136 10.5083252 -1.64364136 10.5083252 -2.28833008 11.78808594 C-2.75005615 12.70364258 -3.21178223 13.61919922 -3.6875 14.5625 C-25.26302297 56.61617719 -25.26302297 56.61617719 -32 102 C-30.46523242 106.35264503 -30.46523242 106.35264503 -27 109 C-22.05025345 109.62316953 -18.20459505 109.68496581 -13.8125 107.1875 C-10.51810026 103.92990919 -8.32403255 99.84861796 -5.9140625 95.92578125 C2.02535466 83.78981502 2.02535466 83.78981502 8.95703125 81.69921875 C13.95861221 80.00770497 15.73044293 76.75073293 18.25 72.3125 C19.73848717 69.74768587 21.25442337 67.41352688 23 65 C24.32 65 25.64 65 27 65 C35.95889979 80.86090932 35.95889979 80.86090932 34 89 C31.21346253 96.09513322 26.35748802 102.76167465 20 107 C16.41554347 106.72947498 13.33395303 106.11586126 9.9375 104.9375 C6.66703308 103.89373396 4.40914707 103.56478974 1 104 C-3.75268212 107.04600239 -5.66453885 110.62855155 -8.125 115.5 C-13.34841479 125.29572068 -20.12686435 134.46851246 -30 140 C-34.07877711 140.76116175 -37.90685928 140.66592472 -42 140 C-45.9693628 137.22144604 -47.49028508 134.50962258 -49 130 C-51.38407584 109.54130264 -42.90189081 87.73768324 -35.73950195 68.9597168 C-34.96370532 66.90381731 -34.2249569 64.83722957 -33.4921875 62.765625 C-25.7926833 41.15348472 -16.61243851 16.61243851 0 0 Z " fill="#FDFBFC" transform="translate(664,816)"/>
<path d="M0 0 C0.99 0.33 1.98 0.66 3 1 C1.89123467 4.83028023 0.40472851 8.23200941 -1.4375 11.75 C-5.32664536 19.4247336 -8.21629675 27.28598358 -7 36 C-5.75608113 39.60081779 -5.01038716 41.38254118 -1.75 43.375 C2.61510941 44.36707032 6.31714642 44.77464689 10.4609375 42.8671875 C13.59041069 40.56582107 15.10929139 38.12063354 17.125 34.8125 C19.1328125 31.51953125 19.1328125 31.51953125 21 29 C21.99 29 22.98 29 24 29 C23.37774699 45.17857814 10.2466621 61.28217781 -1 72 C-6.96444445 76.23943356 -11.55463326 78.02336714 -19 77 C-23.19174002 74.76440532 -24.99330921 71.92995921 -26.5078125 67.4375 C-27.47096856 62.66758427 -27.21776504 57.83922316 -27 53 C-27.37769531 53.72703125 -27.75539063 54.4540625 -28.14453125 55.203125 C-35.9506007 69.46245562 -44.77077471 78.96951337 -60.64501953 83.75952148 C-62.80012354 84.3896557 -64.96160385 84.99275411 -67.125 85.59375 C-70.72158535 86.60510262 -74.26723286 87.72760008 -77.8125 88.90625 C-79.29024902 89.39472412 -79.29024902 89.39472412 -80.79785156 89.89306641 C-82.73509947 90.53742723 -84.66948486 91.19047245 -86.60058594 91.85302734 C-87.93524902 92.29316162 -87.93524902 92.29316162 -89.296875 92.7421875 C-90.47781738 93.14219971 -90.47781738 93.14219971 -91.68261719 93.55029297 C-94.39939066 94.07750501 -96.34323726 93.69682688 -99 93 C-99 92.34 -99 91.68 -99 91 C-98.35264893 90.64921387 -97.70529785 90.29842773 -97.03833008 89.93701172 C-81.8405099 81.66337256 -67.14101202 72.99103377 -53 63 C-52.3507959 62.54141602 -51.7015918 62.08283203 -51.03271484 61.61035156 C-33.42002602 49.00327384 -21.99403711 33.69892458 -11.1496582 15.18383789 C-7.96504551 9.79633521 -4.44783651 4.44783651 0 0 Z " fill="#FDFAFB" transform="translate(575,881)"/>
<path d="M0 0 C-0.47344194 6.85041505 -3.13052731 12.48233895 -5.9375 18.6875 C-6.6812085 20.34809448 -6.6812085 20.34809448 -7.43994141 22.04223633 C-27.60508007 66.71196927 -27.60508007 66.71196927 -43 84 C-43.48339844 84.62390625 -43.96679688 85.2478125 -44.46484375 85.890625 C-51.13043748 94.38417934 -60.16381175 99.65314715 -70.66796875 101.72265625 C-79.15491253 103.57632632 -87.36510481 106.65109273 -95.59082031 109.41015625 C-97.85535391 110.16785644 -100.12274873 110.91643759 -102.390625 111.6640625 C-103.08029358 111.89839996 -103.76996216 112.13273743 -104.48052979 112.37417603 C-108.09541068 113.56070883 -111.18968139 114.27479143 -115 114 C-114.83984375 112.22265625 -114.83984375 112.22265625 -114 110 C-111.69140625 108.24609375 -111.69140625 108.24609375 -108.5625 106.4375 C-107.37221716 105.73467751 -106.18212345 105.03153464 -104.9921875 104.328125 C-104.34862305 103.95365234 -103.70505859 103.57917969 -103.04199219 103.19335938 C-82.91593249 91.43150144 -63.0213764 78.78100195 -46.0234375 62.71484375 C-44 61 -44 61 -41 60 C-40.29474436 58.68666961 -39.63214364 57.3500432 -39 56 C-37.99132005 54.82502416 -36.94607048 53.68089685 -35.875 52.5625 C-29.46100258 45.36338671 -24.88017388 36.9480073 -20.6875 28.3125 C-17.83082895 22.45401525 -14.64239395 16.87740686 -11.25 11.3125 C-10.54170044 10.14424683 -10.54170044 10.14424683 -9.8190918 8.95239258 C-4.29603121 0 -4.29603121 0 0 0 Z " fill="#FDFBFB" transform="translate(434,884)"/>
<path d="M0 0 C3.98895779 3.21332711 6.47430296 5.78894189 7.0625 11 C6.78512959 16.54740828 3.73472909 19.70074399 -0.0625 23.50390625 C-7.15262627 29.59440716 -13.64716731 32.84402997 -23.140625 32.33984375 C-26.96313872 31.56732975 -28.58335296 29.99024899 -30.75 26.8125 C-31.183125 26.214375 -31.61625 25.61625 -32.0625 25 C-33.59419292 20.12643162 -33.45467063 16.25120255 -31.25 11.75 C-23.53753361 2.68785199 -12.38164871 -5.34662104 0 0 Z " fill="#ECA2B3" transform="translate(482.75,905.1875)"/>
<path d="M0 0 C2 1.5625 2 1.5625 3 2.5625 C3 5.86763339 2.93526136 8.49256654 0.6809082 11.0715332 C-3.8616065 14.87366977 -8.55744829 17.83909097 -13.8125 20.5625 C-14.63347168 20.99038818 -15.45444336 21.41827637 -16.30029297 21.85913086 C-21.93998246 24.71346253 -27.63468053 27.11067976 -33.625 29.125 C-34.33374268 29.36412109 -35.04248535 29.60324219 -35.77270508 29.84960938 C-40.83106268 31.44167025 -45.71922816 32.10082152 -51 32.5625 C-46.19013721 26.79995907 -41.08743957 21.40068825 -35.8125 16.0625 C-35.02552734 15.24652344 -34.23855469 14.43054688 -33.42773438 13.58984375 C-24.9665107 5.03941009 -12.74422616 -6.10660837 0 0 Z " fill="#EEA4B5" transform="translate(912,832.4375)"/>
<path d="M0 0 C5.353633 0.48337743 7.82854621 3.0993597 11.37109375 6.890625 C13 9 13 9 13.875 11.9375 C11.709822 19.51562299 6.03088997 26.06308542 0 31 C-2.9375 32.4375 -2.9375 32.4375 -5 33 C-6.27200971 31.89718873 -7.54255853 30.79269231 -8.8125 29.6875 C-9.52019531 29.07261719 -10.22789062 28.45773437 -10.95703125 27.82421875 C-11.63121094 27.22222656 -12.30539062 26.62023437 -13 26 C-13.60199219 25.53207031 -14.20398438 25.06414063 -14.82421875 24.58203125 C-16 23 -16 23 -15.76879883 20.66186523 C-14.91706728 17.71285632 -13.84792444 16.16046672 -11.875 13.828125 C-11.25109375 13.08175781 -10.6271875 12.33539062 -9.984375 11.56640625 C-9.32953125 10.80199219 -8.6746875 10.03757812 -8 9.25 C-7.34515625 8.47011719 -6.6903125 7.69023438 -6.015625 6.88671875 C-1.38255495 1.38255495 -1.38255495 1.38255495 0 0 Z " fill="#FDFBFC" transform="translate(605,836)"/>
<path d="M0 0 C0.33 0 0.66 0 1 0 C1.40665487 9.20244907 0.32445764 17.11992909 -2 26 C-2.46245686 28.10326424 -2.92076491 30.20744482 -3.375 32.3125 C-6.40435162 45.39235671 -10.10783188 60.29142604 -17.1875 71.75 C-19.09376399 75.16812854 -19.79623957 77.96760362 -20.41015625 81.7890625 C-21.14923574 84.55938693 -22.50703922 86.54629131 -24 89 C-24.65129781 90.38266061 -25.28390099 91.77420989 -25.90234375 93.171875 C-26.40217773 94.29142578 -26.40217773 94.29142578 -26.91210938 95.43359375 C-27.60085812 96.98950997 -28.28043318 98.54951666 -28.95117188 100.11328125 C-29.45293945 101.22509766 -29.45293945 101.22509766 -29.96484375 102.359375 C-30.2599585 103.03452148 -30.55507324 103.70966797 -30.85913086 104.40527344 C-32 106 -32 106 -34.12719727 106.72753906 C-34.74522217 106.81745117 -35.36324707 106.90736328 -36 107 C-36.2475 108.03125 -36.495 109.0625 -36.75 110.125 C-37.83214404 113.94704065 -39.74801506 116.72438554 -42 120 C-44.79568662 125.83447643 -46.79347351 131.98121161 -48.9140625 138.0859375 C-50 141 -50 141 -51 142 C-51.35208981 143.49120388 -51.65625472 144.99382692 -51.9375 146.5 C-52.86825815 151.35673803 -53.91080203 156.176409 -55 161 C-56.98 160.67 -58.96 160.34 -61 160 C-60.34 159.67 -59.68 159.34 -59 159 C-57.89544184 156.27542321 -57.11287009 153.55139813 -56.5234375 150.671875 C-53.50184414 136.57110597 -46.84254576 123.10880556 -40.19140625 110.375 C-38.96839715 108.03461973 -38.96839715 108.03461973 -38.08984375 105.625 C-36.41696138 101.59569193 -34.13336696 97.92179615 -31.921875 94.171875 C-29.99096944 90.85763412 -28.31161843 87.60695067 -27 84 C-26.34 84 -25.68 84 -25 84 C-24.896875 83.0925 -24.79375 82.185 -24.6875 81.25 C-23.96137196 77.81739473 -23.07765622 76.71693505 -21 74 C-20.2074499 71.92057731 -19.505908 69.83145483 -18.84375 67.70703125 C-18.5653125 67.14371094 -18.286875 66.58039063 -18 66 C-17.01 65.67 -16.02 65.34 -15 65 C-15.99 64.505 -15.99 64.505 -17 64 C-16.71640113 62.5608866 -16.42278601 61.12374482 -16.125 59.6875 C-15.96257813 58.88699219 -15.80015625 58.08648437 -15.6328125 57.26171875 C-15 55 -15 55 -13 52 C-12.63729412 50.00511766 -12.30830925 48.00401011 -12 46 C-11.56300781 44.52660156 -11.56300781 44.52660156 -11.1171875 43.0234375 C-10.19193633 39.86257946 -9.49889647 36.68999165 -8.8515625 33.4609375 C-8.65046875 32.46835937 -8.449375 31.47578125 -8.2421875 30.453125 C-7.82952123 28.39501729 -7.42592055 26.33507179 -7.03125 24.2734375 C-5.88630582 18.70813921 -4.79989493 15.34386329 -1 11 C-0.31405137 8.1214454 -0.31405137 8.1214454 -0.25 5.1875 C-0.19328125 4.21167969 -0.1365625 3.23585938 -0.078125 2.23046875 C-0.03945313 1.12638672 -0.03945313 1.12638672 0 0 Z " fill="#E4D1D4" transform="translate(756,335)"/>
<path d="M0 0 C0 3.45674567 -0.30461546 3.69368606 -2.60546875 6.0390625 C-3.16991699 6.61503174 -3.73436523 7.19100098 -4.31591797 7.78442383 C-4.93354004 8.39181396 -5.55116211 8.9992041 -6.1875 9.625 C-7.14100342 10.56605591 -7.14100342 10.56605591 -8.11376953 11.52612305 C-23.35332071 26.23450158 -42.60531551 35.38483647 -62.125 43 C-72.3020359 46.81803484 -72.3020359 46.81803484 -81 53 C-81.27094931 55.3657871 -81.27094931 55.3657871 -81.17773438 58.15698242 C-81.16867065 59.25569168 -81.15960693 60.35440094 -81.15026855 61.48640442 C-81.13161743 62.70132065 -81.11296631 63.91623688 -81.09375 65.16796875 C-81.07304967 67.82602361 -81.05459059 70.48400797 -81.0390625 73.14208984 C-81.03410515 73.84940026 -81.0291478 74.55671068 -81.02404022 75.28545475 C-80.97163301 83.93763185 -81.09635647 92.58712765 -81.21875 101.23828125 C-81.24134531 102.89419483 -81.26388747 104.55010914 -81.28637695 106.20602417 C-81.3438052 110.39018109 -81.40343665 114.57430394 -81.46356201 118.75842285 C-81.52537145 123.0908811 -81.58483439 127.4233716 -81.64453125 131.75585938 C-81.76080469 140.17060498 -81.87954882 148.58531316 -82 157 C-82.66 157.33 -83.32 157.66 -84 158 C-84.2085239 144.28323561 -84.36844235 130.56684814 -84.46630955 116.84882164 C-84.51328155 110.47888589 -84.57699138 104.11003434 -84.67895508 97.74072266 C-84.7767414 91.59389218 -84.83055754 85.44810442 -84.85389519 79.30055618 C-84.87052591 76.95525314 -84.90300341 74.61000726 -84.95157051 72.26514816 C-85.01691941 68.97938507 -85.02590245 65.6979294 -85.02172852 62.41162109 C-85.054086 61.44201447 -85.08644348 60.47240784 -85.11978149 59.47341919 C-85.06425367 55.43338007 -85.01873613 52.99776548 -82.04798698 50.0881691 C-79.75552161 48.53338273 -77.48067999 47.22811202 -75 46 C-73.87078125 45.40574219 -72.7415625 44.81148437 -71.578125 44.19921875 C-70.47984375 43.70035156 -69.3815625 43.20148437 -68.25 42.6875 C-67.62786621 42.40173096 -67.00573242 42.11596191 -66.36474609 41.8215332 C-62.59391315 40.10714408 -58.78917708 38.48795171 -54.9609375 36.90625 C-33.28189961 27.92181987 -16.34568498 16.85122163 0 0 Z " fill="#D993A2" transform="translate(864,474)"/>
<path d="M0 0 C-1.45444564 3.36611029 -3.29505831 5.50645886 -5.921875 8.046875 C-6.70046875 8.81 -7.4790625 9.573125 -8.28125 10.359375 C-9.91121125 11.9377552 -11.54141477 13.51588526 -13.171875 15.09375 C-19.25798532 21.05973973 -25.06236672 26.86501552 -28 35 C-28.99307821 36.33849671 -29.99357052 37.67151309 -31 39 C-32.0358679 40.98166034 -33.03112419 42.98473831 -34 45 C-35.04218874 47.05705418 -36.0869714 49.11276938 -37.1328125 51.16796875 C-38.86739203 54.83246335 -39.02776032 55.8889587 -38 60 C-40.97 59.01 -43.94 58.02 -47 57 C-44.57206837 47.28827349 -36.6183885 35.50245553 -29 29 C-28.34 29 -27.68 29 -27 29 C-27.33 28.01 -27.66 27.02 -28 26 C-25.73005136 23.56167482 -23.45888681 21.12448546 -21.1875 18.6875 C-20.54490234 17.99720703 -19.90230469 17.30691406 -19.24023438 16.59570312 C-18.30727539 15.59506836 -18.30727539 15.59506836 -17.35546875 14.57421875 C-16.78465576 13.96151123 -16.21384277 13.34880371 -15.62573242 12.7175293 C-15.08924072 12.15074463 -14.55274902 11.58395996 -14 11 C-13.47704346 10.43128174 -12.95408691 9.86256348 -12.4152832 9.27661133 C-11 8 -11 8 -9 8 C-8.7525 7.4225 -8.505 6.845 -8.25 6.25 C-6.15415198 2.47747356 -4.46699396 0 0 0 Z " fill="#E9D9DB" transform="translate(788,451)"/>
<path d="M0 0 C-1.34734965 9.28408117 -14.26633608 16.72148061 -21.30517578 22.0144043 C-22.78472322 23.11859052 -24.26569387 24.22087215 -25.74804688 25.32128906 C-28.02611085 27.01946424 -30.28813534 28.73716249 -32.546875 30.4609375 C-33.98943455 31.55748742 -35.43213748 32.65384876 -36.875 33.75 C-37.5467627 34.26353027 -38.21852539 34.77706055 -38.91064453 35.30615234 C-41.58803443 37.32506584 -43.79578667 38.93192889 -47 40 C-43.68902265 28.22763611 -12.0793482 0 0 0 Z " fill="#FDF8F9" transform="translate(555,785)"/>
<path d="M0 0 C1 3 1 3 0.04370117 5.46435547 C-0.45154053 6.42229004 -0.94678223 7.38022461 -1.45703125 8.3671875 C-2.26043945 9.94306641 -2.26043945 9.94306641 -3.08007812 11.55078125 C-3.65177734 12.64777344 -4.22347656 13.74476563 -4.8125 14.875 C-5.92482753 17.03821464 -7.03556321 19.20224871 -8.14453125 21.3671875 C-8.64315674 22.32737793 -9.14178223 23.28756836 -9.65551758 24.27685547 C-11.02582718 26.95883739 -11.02582718 26.95883739 -12.05737305 29.67236328 C-13 32 -13 32 -14.9375 34.875 C-19.21783368 41.36035405 -21.38022262 48.79154997 -23.9140625 56.0859375 C-25 59 -25 59 -26 60 C-26.35208981 61.49120388 -26.65625472 62.99382692 -26.9375 64.5 C-27.86825815 69.35673803 -28.91080203 74.176409 -30 79 C-31.98 78.67 -33.96 78.34 -36 78 C-35.01 77.505 -35.01 77.505 -34 77 C-32.89544184 74.27542321 -32.11287009 71.55139813 -31.5234375 68.671875 C-28.50184414 54.57110597 -21.84254576 41.10880556 -15.19140625 28.375 C-13.96839715 26.03461973 -13.96839715 26.03461973 -13.08984375 23.625 C-11.41696138 19.59569193 -9.13336696 15.92179615 -6.921875 12.171875 C-4.99096944 8.85763412 -3.31161843 5.60695067 -2 2 C-1.34 2 -0.68 2 0 2 C0 1.34 0 0.68 0 0 Z " fill="#D8C0C4" transform="translate(731,417)"/>
<path d="M0 0 C0.495 1.485 0.495 1.485 1 3 C0.154375 3.82242187 -0.69125 4.64484375 -1.5625 5.4921875 C-2.70861082 6.61950962 -3.85442817 7.74713016 -5 8.875 C-5.55300781 9.41125 -6.10601563 9.9475 -6.67578125 10.5 C-9.97191131 13.75824351 -12.9321371 17.12060258 -15.77734375 20.78125 C-20.28085972 26.50855927 -25.35585001 31.54099058 -30.5625 36.625 C-36.06734516 42.02420847 -41.4811466 47.40652505 -46.49633789 53.26708984 C-48.5384584 55.62055167 -50.71788686 57.81453475 -52.9375 60 C-53.70964844 60.763125 -54.48179687 61.52625 -55.27734375 62.3125 C-55.84582031 62.869375 -56.41429687 63.42625 -57 64 C-57 57.93005679 -51.05583448 53.08943946 -46.96875 48.93554688 C-43.90857347 45.89927797 -40.84230633 42.87176714 -37.72875977 39.89013672 C-36.64292603 38.83463623 -36.64292603 38.83463623 -35.53515625 37.7578125 C-34.879104 37.1302002 -34.22305176 36.50258789 -33.54711914 35.85595703 C-31.87504747 33.85010429 -31.50667546 32.51891963 -31 30 C-29.44140625 28.296875 -29.44140625 28.296875 -27.5625 26.75 C-26.94503906 26.22921875 -26.32757812 25.7084375 -25.69140625 25.171875 C-24 24 -24 24 -22 24 C-22 23.34 -22 22.68 -22 22 C-20.42578125 20.484375 -20.42578125 20.484375 -18.3125 18.75 C-14.74663606 15.724038 -11.92488753 12.63634666 -9 9 C-7.35353315 7.31337542 -5.68816933 5.64488294 -4 4 C-3.236875 3.236875 -2.47375 2.47375 -1.6875 1.6875 C-1.130625 1.130625 -0.57375 0.57375 0 0 Z " fill="#F1E6E7" transform="translate(819,419)"/>
<path d="M0 0 C1.99911088 2.99866631 2.74532366 5.177309 3.69140625 8.62109375 C3.99626953 9.72130859 4.30113281 10.82152344 4.61523438 11.95507812 C4.92783203 13.10427734 5.24042969 14.25347656 5.5625 15.4375 C5.87896484 16.58283203 6.19542969 17.72816406 6.52148438 18.90820312 C8.94612476 27.70588977 8.94612476 27.70588977 10 32 C7.69 32 5.38 32 3 32 C3.20625 31.195625 3.4125 30.39125 3.625 29.5625 C4.10698221 24.983669 3.14385114 21.41853355 2 17 C1.42758654 14.73164528 0.86550096 12.46066524 0.3125 10.1875 C0.04050781 9.10855469 -0.23148438 8.02960938 -0.51171875 6.91796875 C-0.97724413 4.1359891 -0.94362442 2.61554956 0 0 Z " fill="#E7D6D9" transform="translate(555,461)"/>
<path d="M0 0 C0 3.35762885 -0.39462725 3.84515966 -2.375 6.375 C-4.5324695 9.13807497 -5.749446 11.72676964 -7 15 C-8.03000335 17.27614731 -9.07224414 19.5467863 -10.125 21.8125 C-10.66382813 22.97394531 -11.20265625 24.13539063 -11.7578125 25.33203125 C-12.16773438 26.21246094 -12.57765625 27.09289062 -13 28 C-14.65 28 -16.3 28 -18 28 C-16.03394788 18.07934619 -7.24394816 6.79540648 0 0 Z " fill="#D8C1C5" transform="translate(759,480)"/>
<path d="M0 0 C0.66 0.33 1.32 0.66 2 1 C1.80664062 1.53367187 1.61328125 2.06734375 1.4140625 2.6171875 C-0.30469997 7.5352306 -1.57246816 12.37277046 -2.52734375 17.4921875 C-3.25450882 21.3503691 -4.13529048 25.17057212 -5 29 C-6.98 28.67 -8.96 28.34 -11 28 C-10.34 27.67 -9.68 27.34 -9 27 C-7.44610481 23.16705853 -6.57221554 19.20164587 -5.625 15.1875 C-4.31395033 9.80211137 -2.46505469 4.95513531 0 0 Z " fill="#DAC2C5" transform="translate(706,467)"/>
<path d="M0 0 C-1.64206079 4.19637758 -4.72870731 7.02397771 -7.875 10.125 C-8.40480469 10.66253906 -8.93460938 11.20007813 -9.48046875 11.75390625 C-13.4985578 15.75205441 -13.4985578 15.75205441 -16.1171875 17.046875 C-18.9217145 18.46659406 -20.34971864 20.65463423 -22.25 23.125 C-22.95640625 24.03507812 -23.6628125 24.94515625 -24.390625 25.8828125 C-24.92171875 26.58148438 -25.4528125 27.28015625 -26 28 C-26.66 27.34 -27.32 26.68 -28 26 C-25.73005136 23.56167482 -23.45888681 21.12448546 -21.1875 18.6875 C-20.54490234 17.99720703 -19.90230469 17.30691406 -19.24023438 16.59570312 C-18.61826172 15.92861328 -17.99628906 15.26152344 -17.35546875 14.57421875 C-16.49924927 13.65515747 -16.49924927 13.65515747 -15.62573242 12.7175293 C-15.08924072 12.15074463 -14.55274902 11.58395996 -14 11 C-13.47704346 10.43128174 -12.95408691 9.86256348 -12.4152832 9.27661133 C-11 8 -11 8 -9 8 C-8.7525 7.4225 -8.505 6.845 -8.25 6.25 C-6.15415198 2.47747356 -4.46699396 0 0 0 Z " fill="#DEC9CB" transform="translate(788,451)"/>
<path d="M0 0 C0.33 0 0.66 0 1 0 C0.5763084 5.71983659 -0.72730105 10.22362704 -2.95703125 15.49609375 C-5.85738227 22.45910874 -7.87254039 29.77267266 -10 37 C-10.33 37 -10.66 37 -11 37 C-9.68116124 23.37199945 -6.30533624 12.16029132 0 0 Z " fill="#EDDFE0" transform="translate(712,459)"/>
<path d="M0 0 C0.33 0.99 0.66 1.98 1 3 C0.11957031 3.86882812 -0.76085937 4.73765625 -1.66796875 5.6328125 C-2.84128125 6.7967385 -4.01445073 7.9608087 -5.1875 9.125 C-5.76564453 9.69476563 -6.34378906 10.26453125 -6.93945312 10.8515625 C-10.52275039 14.41461514 -13.79058393 18.09880167 -17 22 C-20.5 25 -20.5 25 -23 25 C-23.268125 25.598125 -23.53625 26.19625 -23.8125 26.8125 C-25.00987475 29.01819033 -26.04478984 30.43583187 -28 32 C-28.99 32 -29.98 32 -31 32 C-31 30 -31 30 -29.5390625 28.4921875 C-28.59160156 27.69167969 -28.59160156 27.69167969 -27.625 26.875 C-26.99851562 26.33617187 -26.37203125 25.79734375 -25.7265625 25.2421875 C-24 24 -24 24 -22 24 C-22 23.34 -22 22.68 -22 22 C-20.42578125 20.484375 -20.42578125 20.484375 -18.3125 18.75 C-14.74663606 15.724038 -11.92488753 12.63634666 -9 9 C-7.35353315 7.31337542 -5.68816933 5.64488294 -4 4 C-3.236875 3.236875 -2.47375 2.47375 -1.6875 1.6875 C-1.130625 1.130625 -0.57375 0.57375 0 0 Z " fill="#ECDDDF" transform="translate(819,419)"/>
<path d="M0 0 C1.19948991 3.43490292 0.82979326 5.1447809 -0.625 8.4375 C-2.35564674 12.46378125 -3.93164456 16.50899514 -5.4375 20.625 C-7.44635317 25.89667989 -9.81233917 30.35512279 -13 35 C-13.33 33.68 -13.66 32.36 -14 31 C-13.34 31 -12.68 31 -12 31 C-11.896875 30.360625 -11.79375 29.72125 -11.6875 29.0625 C-9.83114683 20.7932904 -6.39388344 13.53372947 -2.5234375 6.0390625 C-0.94298402 3.06634989 -0.94298402 3.06634989 0 0 Z " fill="#EDDFE1" transform="translate(688,408)"/>
<path d="M0 0 C0.66 0 1.32 0 2 0 C3.53931607 5.2152489 3.18430775 10.5457825 3.1875 15.9375 C3.19974609 17.02224609 3.21199219 18.10699219 3.22460938 19.22460938 C3.22654297 20.27326172 3.22847656 21.32191406 3.23046875 22.40234375 C3.23457764 23.35616943 3.23868652 24.30999512 3.24291992 25.29272461 C2.98256822 28.19427237 2.20854008 30.36348465 1 33 C0.67 33 0.34 33 0 33 C0 22.11 0 11.22 0 0 Z " fill="#DF98A8" transform="translate(887,392)"/>
<path d="M0 0 C0.33 0 0.66 0 1 0 C1.45755719 7.62595318 -0.25463701 14.6029854 -2 22 C-4.3125 22.625 -4.3125 22.625 -7 23 C-7.99 22.34 -8.98 21.68 -10 21 C-8.35 21 -6.7 21 -5 21 C-4.06619039 16.46859347 -4.06619039 16.46859347 -5 12 C-4.00243753 8.93057703 -2.80125336 6.70188004 -1 4 C-0.36707617 1.88719655 -0.36707617 1.88719655 0 0 Z " fill="#EBDCDE" transform="translate(666,468)"/>
<path d="M0 0 C1.06671952 3.20015856 0.94845472 4.88544294 0.5625 8.1875 C0.46066406 9.08855469 0.35882812 9.98960937 0.25390625 10.91796875 C0.12822266 11.94857422 0.12822266 11.94857422 0 13 C-2 12 -2 12 -3 9 C-4.32 10.32 -5.64 11.64 -7 13 C-5.35821735 8.22390502 -2.73453298 4.20617096 0 0 Z M-8 13 C-7.67 13.99 -7.34 14.98 -7 16 C-9.97 18.97 -12.94 21.94 -16 25 C-16.66 24.67 -17.32 24.34 -18 24 C-14.7 20.37 -11.4 16.74 -8 13 Z " fill="#EBAFBD" transform="translate(548,933)"/>
<path d="M0 0 C0.33 0 0.66 0 1 0 C1.37932746 4.42548702 0.25956215 6.26791419 -2 10 C-2.66261487 11.38270753 -3.30706155 12.77420338 -3.9375 14.171875 C-4.27523437 14.91824219 -4.61296875 15.66460937 -4.9609375 16.43359375 C-5.65948555 17.99088321 -6.35210646 19.55084365 -7.0390625 21.11328125 C-7.37679687 21.85449219 -7.71453125 22.59570312 -8.0625 23.359375 C-8.36285156 24.03452148 -8.66320312 24.70966797 -8.97265625 25.40527344 C-10 27 -10 27 -13 28 C-11.46769011 22.74517641 -9.11025087 18.21184065 -6.5 13.4375 C-2.91262517 6.87845126 -2.91262517 6.87845126 0 0 Z " fill="#EEDFE1" transform="translate(734,414)"/>
<path d="M0 0 C0.66 0.33 1.32 0.66 2 1 C0.43902526 2.1063219 -1.12385327 3.20995785 -2.6875 4.3125 C-3.55761719 4.92738281 -4.42773438 5.54226563 -5.32421875 6.17578125 C-9.74270784 9.18809425 -14.14559762 11.63654006 -19.0625 13.75 C-20.08472656 14.19859375 -21.10695313 14.6471875 -22.16015625 15.109375 C-25.15821398 16.04961869 -26.10972575 15.88121423 -29 15 C-27.82824219 14.50371094 -26.65648437 14.00742187 -25.44921875 13.49609375 C-17.15233356 9.92627762 -9.37331153 6.37438791 -1.96875 1.15234375 C-1.3190625 0.77207031 -0.669375 0.39179687 0 0 Z " fill="#DA96A3" transform="translate(831,744)"/>
<path d="M0 0 C0 3.87615119 -1.10148087 4.45681878 -3.75 7.1875 C-7.03657068 10.7344504 -9.1735983 13.95907619 -11.12890625 18.34765625 C-12.30046565 20.56994156 -13.9269388 21.64178749 -16 23 C-16.33 23.99 -16.66 24.98 -17 26 C-17.66 26 -18.32 26 -19 26 C-15.52878622 15.98828867 -7.09736138 7.6581883 0 0 Z " fill="#E4D2D4" transform="translate(772,466)"/>
<path d="M0 0 C-0.33 0.66 -0.66 1.32 -1 2 C-3.64782925 2.71046602 -6.25703286 3.31868198 -8.9375 3.875 C-15.58864022 5.33427481 -21.79488384 7.1337547 -28 10 C-28 9.34 -28 8.68 -28 8 C-18.86320723 3.08168389 -10.51264308 -0.58403573 0 0 Z " fill="#E59FB0" transform="translate(766,940)"/>
<path d="M0 0 C0.33 0 0.66 0 1 0 C1.25721234 4.73699388 0.47666113 8.15743381 -1.25 12.5625 C-1.66765625 13.65691406 -2.0853125 14.75132812 -2.515625 15.87890625 C-4.00805042 19.01692707 -5.72432833 21.38881263 -8 24 C-7.3661521 18.482845 -5.49435691 13.73252191 -3.4375 8.625 C-2.9434668 7.37783203 -2.9434668 7.37783203 -2.43945312 6.10546875 C-1.63155238 4.06815382 -0.8182989 2.03315558 0 0 Z " fill="#E7A6B6" transform="translate(505,896)"/>
<path d="M0 0 C0.33 0 0.66 0 1 0 C0.57200914 8.27449001 -2.04444196 15.33299888 -5 23 C-5.98987007 19.91129471 -5.9876603 18.05029971 -5.0390625 14.9609375 C-4.81476562 14.21585937 -4.59046875 13.47078125 -4.359375 12.703125 C-4.11703125 11.93484375 -3.8746875 11.1665625 -3.625 10.375 C-3.39039063 9.59898437 -3.15578125 8.82296875 -2.9140625 8.0234375 C-1.18917411 2.37834821 -1.18917411 2.37834821 0 0 Z " fill="#ECDEDF" transform="translate(673,444)"/>
<path d="M0 0 C0.33 0 0.66 0 1 0 C1.22428282 7.94957992 0.95403042 15.27111181 -1 23 C-1.33 23 -1.66 23 -2 23 C-2.33 21.35 -2.66 19.7 -3 18 C-3.66 18.99 -4.32 19.98 -5 21 C-5.25 18.8125 -5.25 18.8125 -5 16 C-4.360625 15.29875 -3.72125 14.5975 -3.0625 13.875 C0.01584413 9.58397485 -0.18094154 5.16588085 0 0 Z " fill="#EFE2E4" transform="translate(756,335)"/>
<path d="M0 0 C1.36722938 3.69151932 0.5123038 5.47129113 -1 9 C-1.37593066 10.9924325 -1.71979545 12.9918674 -2 15 C-4.97 14.505 -4.97 14.505 -8 14 C-7.34 13.67 -6.68 13.34 -6 13 C-5.27840576 11.35636866 -4.60648579 9.68949614 -4 8 C-3.34 8 -2.68 8 -2 8 C-1.7834375 6.576875 -1.7834375 6.576875 -1.5625 5.125 C-1 2 -1 2 0 0 Z " fill="#E7D4D5" transform="translate(703,481)"/>
<path d="M0 0 C1.65 0 3.3 0 5 0 C3.59155282 3.21524305 1.89655214 5.32183868 -0.625 7.75 C-1.57246094 8.67039062 -1.57246094 8.67039062 -2.5390625 9.609375 C-3.02117188 10.06828125 -3.50328125 10.5271875 -4 11 C-4 7.80389448 -3.45328458 6.58282374 -2 3.8125 C-1.62875 3.09707031 -1.2575 2.38164063 -0.875 1.64453125 C-0.441875 0.83048828 -0.441875 0.83048828 0 0 Z " fill="#ECABB9" transform="translate(890,822)"/>
<path d="M0 0 C4.95 2.64 9.9 5.28 15 8 C14.67 8.66 14.34 9.32 14 10 C9.05 7.69 4.1 5.38 -1 3 C-0.67 2.01 -0.34 1.02 0 0 Z " fill="#DDC8CB" transform="translate(754,510)"/>
<path d="M0 0 C0.33 0 0.66 0 1 0 C0.5272932 4.82160935 -0.26599487 8.00414635 -3 12 C-3.8353125 13.3921875 -3.8353125 13.3921875 -4.6875 14.8125 C-5.120625 15.534375 -5.55375 16.25625 -6 17 C-6.64453125 15.2109375 -6.64453125 15.2109375 -7 13 C-6.07421875 11.2890625 -6.07421875 11.2890625 -4.6875 9.625 C-2.30279833 6.55800868 -1.01660061 3.78914772 0 0 Z " fill="#ECDCDE" transform="translate(720,442)"/>
<path d="M0 0 C3.33773709 3.64116773 3.97864902 7.28607242 5 12 C4.01 12.33 3.02 12.66 2 13 C1.47212358 11.02270019 0.95287097 9.04309608 0.4375 7.0625 C0.00244141 5.40927734 0.00244141 5.40927734 -0.44140625 3.72265625 C-0.62574219 2.82417969 -0.81007813 1.92570312 -1 1 C-0.67 0.67 -0.34 0.34 0 0 Z " fill="#E5D5D7" transform="translate(550,448)"/>
<path d="M0 0 C0.66 0.33 1.32 0.66 2 1 C1.34 1.66 0.68 2.32 0 3 C0.99 3 1.98 3 3 3 C3 3.66 3 4.32 3 5 C1.38007835 5.86375896 -0.24611861 6.71575854 -1.875 7.5625 C-3.23238281 8.27599609 -3.23238281 8.27599609 -4.6171875 9.00390625 C-5.40351563 9.33261719 -6.18984375 9.66132812 -7 10 C-7.66 9.67 -8.32 9.34 -9 9 C-6.03 6.03 -3.06 3.06 0 0 Z " fill="#E8A4B4" transform="translate(475,872)"/>
<path d="M0 0 C0.88336837 2.4667645 1.1312406 3.63859372 0.22265625 6.140625 C-0.16019531 6.83671875 -0.54304687 7.5328125 -0.9375 8.25 C-1.31777344 8.95640625 -1.69804688 9.6628125 -2.08984375 10.390625 C-2.39019531 10.92171875 -2.69054687 11.4528125 -3 12 C-4.65 12 -6.3 12 -8 12 C-7.01 11.67 -6.02 11.34 -5 11 C-4.27954236 9.0187415 -3.61998741 7.01495907 -3 5 C-2.0436126 3.30792999 -1.05589069 1.63183107 0 0 Z " fill="#DDC5C8" transform="translate(749,496)"/>
<path d="M0 0 C2.0625 0.4375 2.0625 0.4375 4 1 C2.50902342 4.7952131 0.24299151 6.61042731 -3 9 C-2.69181644 7.68647977 -2.37832335 6.37420428 -2.0625 5.0625 C-1.88847656 4.33160156 -1.71445312 3.60070312 -1.53515625 2.84765625 C-1 1 -1 1 0 0 Z " fill="#EBA5B7" transform="translate(470,863)"/>
<path d="M0 0 C0.66 0.33 1.32 0.66 2 1 C1.38125 1.9075 0.7625 2.815 0.125 3.75 C-1.44389611 6.14948817 -2.80443821 8.40961612 -4 11 C-4 10.01 -4 9.02 -4 8 C-4.99 7.67 -5.98 7.34 -7 7 C-4.95312762 3.92969143 -2.90802461 2.21928194 0 0 Z " fill="#EDDCDF" transform="translate(783,518)"/>
<path d="M0 0 C0.33 0.99 0.66 1.98 1 3 C-1.97 5.97 -4.94 8.94 -8 12 C-8.33 11.01 -8.66 10.02 -9 9 C-6 6 -3 3 0 0 Z " fill="#EFE2E2" transform="translate(819,419)"/>
<path d="M0 0 C0.33 0.99 0.66 1.98 1 3 C-1.97 5.97 -4.94 8.94 -8 12 C-8.66 11.67 -9.32 11.34 -10 11 C-6.7 7.37 -3.4 3.74 0 0 Z " fill="#E89FB0" transform="translate(540,946)"/>
<path d="M0 0 C0.66 0 1.32 0 2 0 C1.29445932 3.66881155 -0.27735506 6.70450534 -2 10 C-2.99 10 -3.98 10 -5 10 C-3.66749209 6.4124787 -2.169283 3.1635377 0 0 Z " fill="#D1B4B8" transform="translate(746,497)"/>
<path d="M0 0 C0.33 0 0.66 0 1 0 C0.67 2.31 0.34 4.62 0 7 C-0.66 7 -1.32 7 -2 7 C-2.28875 7.639375 -2.5775 8.27875 -2.875 8.9375 C-4 11 -4 11 -6 12 C-4.43358249 7.69235185 -2.31663844 3.93828536 0 0 Z " fill="#E7A1B2" transform="translate(699,902)"/>
<path d="M0 0 C0.33 0.99 0.66 1.98 1 3 C-1.9826906 4.52448631 -4.818202 5.93940067 -8 7 C-8.33 7.66 -8.66 8.32 -9 9 C-9 8.34 -9 7.68 -9 7 C-9.66 6.67 -10.32 6.34 -11 6 C-7.37 4.02 -3.74 2.04 0 0 Z " fill="#EFE0E3" transform="translate(484,514)"/>
<path d="M0 0 C0.66 0 1.32 0 2 0 C1.55123384 1.64846769 1.09069512 3.29373455 0.625 4.9375 C0.36976563 5.85402344 0.11453125 6.77054688 -0.1484375 7.71484375 C-1 10 -1 10 -3 11 C-2.53199289 6.94393835 -2.12046792 3.53411321 0 0 Z " fill="#E8A3B4" transform="translate(900,799)"/>
<path d="M0 0 C0.33 0 0.66 0 1 0 C1.33 1.98 1.66 3.96 2 6 C-0.35438733 7.42944945 -1.48032433 8.08661261 -4.25 7.625 C-4.8275 7.41875 -5.405 7.2125 -6 7 C-5.195625 6.401875 -4.39125 5.80375 -3.5625 5.1875 C-0.77672016 3.19052724 -0.77672016 3.19052724 0 0 Z " fill="#E9D9DA" transform="translate(508,499)"/>
<path d="M0 0 C0.66 0.33 1.32 0.66 2 1 C1.07347299 2.17539996 0.13336613 3.34010577 -0.8125 4.5 C-1.33457031 5.1496875 -1.85664062 5.799375 -2.39453125 6.46875 C-4 8 -4 8 -7 8 C-7 7.34 -7 6.68 -7 6 C-5.46875 4.4921875 -5.46875 4.4921875 -3.5 2.875 C-2.8503125 2.33617187 -2.200625 1.79734375 -1.53125 1.2421875 C-1.0259375 0.83226562 -0.520625 0.42234375 0 0 Z " fill="#E8D6D7" transform="translate(795,443)"/>
<path d="M0 0 C-4.8333472 0.08333357 -9.23692563 -0.04738513 -14 -1 C-14 -1.33 -14 -1.66 -14 -2 C-8.22378823 -3.18149786 -5.13350208 -2.7500904 0 0 Z " fill="#F4E0E4" transform="translate(482,766)"/>
<path d="M0 0 C0.66 0.33 1.32 0.66 2 1 C2 2.65 2 4.3 2 6 C0.02 6.99 0.02 6.99 -2 8 C-1.125 1.125 -1.125 1.125 0 0 Z " fill="#DFCBCD" transform="translate(663,475)"/>
<path d="M0 0 C2.6855594 2.6855594 3.06049974 5.37621328 4 9 C3.01 9.33 2.02 9.66 1 10 C0.67 6.7 0.34 3.4 0 0 Z " fill="#E9A3B3" transform="translate(860,674)"/>
<path d="M0 0 C0.33 0 0.66 0 1 0 C1 2.31 1 4.62 1 7 C-0.65 6.67 -2.3 6.34 -4 6 C-3.34 5.67 -2.68 5.34 -2 5 C-1.27840576 3.35636866 -0.60648579 1.68949614 0 0 Z " fill="#DDC7C8" transform="translate(699,489)"/>
<path d="M0 0 C0.66 0.33 1.32 0.66 2 1 C0.68 3.64 -0.64 6.28 -2 9 C-3 5 -3 5 -1.5625 2.25 C-1.046875 1.5075 -0.53125 0.765 0 0 Z " fill="#E39CAD" transform="translate(500,911)"/>
<path d="M0 0 C0.99 0.33 1.98 0.66 3 1 C2 4 2 4 0.0625 5.125 C-0.618125 5.41375 -1.29875 5.7025 -2 6 C-2.99 6.495 -2.99 6.495 -4 7 C-2.79618552 4.50638429 -1.54571278 2.31856917 0 0 Z " fill="#FDEFF2" transform="translate(484,824)"/>
</svg>
